<svg width="24" height="24" viewBox="0 0 24 24" fill="none" xmlns="http://www.w3.org/2000/svg">
<g id="Group">
<path id="Vector" d="M18.3623 0.117188H5.63506C2.71097 0.117188 0.332031 2.49613 0.332031 5.42022V13.9051C0.332031 16.4654 2.15733 18.6078 4.57446 19.101V22.3899C4.57446 22.7813 4.78976 23.1408 5.13446 23.3254C5.29142 23.4092 5.46324 23.4505 5.63506 23.4505C5.84082 23.4505 6.04552 23.3901 6.2237 23.2723L12.3201 19.2081H18.3623C21.2864 19.2081 23.6654 16.8292 23.6654 13.9051V5.42022C23.6654 2.49613 21.2864 0.117188 18.3623 0.117188ZM11.4101 17.2651L6.69567 20.4076V18.1475C6.69567 17.562 6.22052 17.0869 5.63506 17.0869C3.88082 17.0869 2.45324 15.6593 2.45324 13.9051V5.42022C2.45324 3.66598 3.88082 2.2384 5.63506 2.2384H18.3623C20.1166 2.2384 21.5442 3.66598 21.5442 5.42022V13.9051C21.5442 15.6593 20.1166 17.0869 18.3623 17.0869H11.9987C11.9245 17.0858 11.8184 17.0932 11.6975 17.1293C11.5702 17.1664 11.4737 17.2216 11.4101 17.2651Z" fill="white"/>
<path id="Vector_2" d="M18.3621 6.48047H5.63482C5.04937 6.48047 4.57422 6.95562 4.57422 7.54107C4.57422 8.12653 5.04937 8.60168 5.63482 8.60168H18.3621C18.9476 8.60168 19.4227 8.12653 19.4227 7.54107C19.4227 6.95562 18.9476 6.48047 18.3621 6.48047Z" fill="white"/>
<path id="Vector_3" d="M16.2408 10.7227H7.75592C7.17046 10.7227 6.69531 11.1978 6.69531 11.7833C6.69531 12.3687 7.17046 12.8439 7.75592 12.8439H16.2408C16.8262 12.8439 17.3014 12.3687 17.3014 11.7833C17.3014 11.1978 16.8262 10.7227 16.2408 10.7227Z" fill="white"/>
</g>
</svg>
