<svg width="24" height="17" viewBox="0 0 24 17" fill="none" xmlns="http://www.w3.org/2000/svg">
<g id="Group">
<path id="Vector" d="M21.1133 0.617188H2.88411C1.47691 0.617188 0.332031 1.76207 0.332031 3.16927V14.1068C0.332031 15.514 1.47691 16.6589 2.88411 16.6589H21.1133C22.5205 16.6589 23.6654 15.514 23.6654 14.1068V3.16927C23.6654 1.76207 22.5205 0.617188 21.1133 0.617188ZM2.88411 2.07552H21.1133C21.7163 2.07552 22.207 2.5662 22.207 3.16927V4.6276H1.79036V3.16927C1.79036 2.5662 2.28105 2.07552 2.88411 2.07552ZM21.1133 15.2005H2.88411C2.28105 15.2005 1.79036 14.7098 1.79036 14.1068V6.08594H22.207V14.1068C22.207 14.7098 21.7163 15.2005 21.1133 15.2005Z" fill="white"/>
<path id="Vector_2" d="M5.4349 13.0137H4.70573C4.30305 13.0137 3.97656 12.6872 3.97656 12.2845V11.5553C3.97656 11.1527 4.30305 10.8262 4.70573 10.8262H5.4349C5.83758 10.8262 6.16406 11.1527 6.16406 11.5553V12.2845C6.16406 12.6872 5.83758 13.0137 5.4349 13.0137Z" fill="white"/>
</g>
</svg>
