<svg width="20" height="20" viewBox="0 0 20 20" fill="none" xmlns="http://www.w3.org/2000/svg">
<g clip-path="url(#clip0_667_10925)">
<path d="M5.0403 4.03123L6.77467 4.98045C6.99733 5.10155 7.07936 5.37889 6.95827 5.60155C6.9153 5.67967 6.8528 5.74217 6.77467 5.78514L5.0403 6.73045C4.96217 6.77342 4.89967 6.83592 4.85671 6.91405L3.90749 8.64842C3.78639 8.87108 3.50905 8.95311 3.28639 8.83202C3.20827 8.78905 3.14577 8.72655 3.1028 8.64842L2.15749 6.91405C2.11452 6.83592 2.05202 6.77342 1.97389 6.73045L0.239517 5.78514C0.0168612 5.66405 -0.06517 5.3867 0.0559237 5.16405C0.0988925 5.08592 0.161392 5.02342 0.239517 4.98045L1.97389 4.03123C2.05202 3.98827 2.11452 3.92577 2.15749 3.84764L3.1067 2.11717C3.2278 1.89452 3.50905 1.81248 3.7317 1.93748C3.80592 1.98045 3.86842 2.04295 3.91139 2.11717L4.86061 3.84764C4.89967 3.92577 4.96217 3.98827 5.0403 4.03123Z" fill="#202226"/>
<path d="M17.9505 13.2883L19.6848 14.2376C19.9075 14.3587 19.9895 14.636 19.8684 14.8587C19.8255 14.9368 19.763 14.9993 19.6848 15.0423L17.9505 15.9915C17.8723 16.0344 17.8098 16.0969 17.7669 16.1751L16.8176 17.9094C16.6965 18.1321 16.4153 18.2141 16.1926 18.093C16.1145 18.0501 16.052 17.9876 16.009 17.9094L15.0676 16.1712C15.0247 16.093 14.9622 16.0305 14.884 15.9876L13.1497 15.0383C12.927 14.9173 12.845 14.636 12.9661 14.4133C13.009 14.3352 13.0715 14.2727 13.1497 14.2298L14.884 13.2805C14.9622 13.2376 15.0247 13.1751 15.0676 13.0969L16.0169 11.3665C16.138 11.1438 16.4192 11.0618 16.6419 11.1829C16.72 11.2258 16.7825 11.2883 16.8255 11.3665L17.7747 13.1008C17.8098 13.1829 17.8723 13.2454 17.9505 13.2883Z" fill="#202226"/>
<path d="M10.4419 2.04736L11.5786 2.66846C11.7231 2.75049 11.7778 2.93408 11.6997 3.07861C11.6724 3.1294 11.6294 3.16846 11.5786 3.19971L10.4419 3.8208C10.3911 3.84815 10.3481 3.89111 10.3208 3.9419L9.69971 5.07861C9.61768 5.22315 9.43408 5.27783 9.28955 5.19971C9.23877 5.17236 9.19971 5.1294 9.16846 5.07861L8.54737 3.9419C8.52002 3.89111 8.47705 3.84815 8.42627 3.8208L7.28955 3.19971C7.14502 3.12158 7.09033 2.93799 7.16846 2.78955C7.1958 2.73877 7.23877 2.6958 7.28955 2.66846L8.42627 2.04736C8.47705 2.02002 8.52002 1.97705 8.54737 1.92627L9.16846 0.789553C9.25049 0.645022 9.43408 0.590334 9.57861 0.668459C9.6294 0.695803 9.66846 0.738772 9.69971 0.789553L10.3208 1.92627C10.3481 1.97705 10.3911 2.02002 10.4419 2.04736Z" fill="#202226"/>
<path d="M19.5562 2.56641L17.9507 0.960942C17.3569 0.367192 16.3921 0.363286 15.7944 0.957036C15.7944 0.957036 15.7944 0.957036 15.7905 0.960942L1.47803 15.2774C0.884279 15.8711 0.880372 16.8359 1.47803 17.4336L3.0835 19.0391C3.67725 19.6328 4.64209 19.6367 5.23975 19.0391L19.5562 4.72266C20.1499 4.12891 20.1499 3.16407 19.5562 2.56641ZM13.9741 7.98047L12.5366 6.54297L16.7749 2.30079L18.2124 3.73829L13.9741 7.98047Z" fill="#202226"/>
</g>
<defs>
<clipPath id="clip0_667_10925">
<rect width="20" height="20" fill="white"/>
</clipPath>
</defs>
</svg>
