<svg width="24" height="24" viewBox="0 0 24 24" fill="none" xmlns="http://www.w3.org/2000/svg">
<g id="Group">
<g id="Group_2">
<path id="Vector" d="M23.3805 21.7909L16.7451 15.1555C18.0304 13.5679 18.8042 11.5505 18.8042 9.35331C18.8042 4.26081 14.6606 0.117188 9.56811 0.117188C4.47561 0.117188 0.332031 4.26077 0.332031 9.35327C0.332031 14.4458 4.47566 18.5894 9.56816 18.5894C11.7654 18.5894 13.7827 17.8155 15.3704 16.5302L22.0058 23.1656C22.1954 23.3552 22.4442 23.4505 22.6932 23.4505C22.9421 23.4505 23.1909 23.3552 23.3805 23.1656C23.7607 22.7855 23.7607 22.1711 23.3805 21.7909ZM9.56816 16.6449C5.54703 16.6449 2.27649 13.3744 2.27649 9.35327C2.27649 5.33214 5.54703 2.0616 9.56816 2.0616C13.5893 2.0616 16.8598 5.33214 16.8598 9.35327C16.8598 13.3744 13.5892 16.6449 9.56816 16.6449Z" fill="white"/>
</g>
</g>
</svg>
