<svg width="64" height="64" viewBox="0 0 64 64" fill="none" xmlns="http://www.w3.org/2000/svg">
<rect width="64" height="64" rx="32" fill="#202226"/>
<path d="M43.1829 30.6924L25.5935 22.1121C25.4423 22.0384 25.2762 22 25.1078 22C24.496 22 24 22.496 24 23.1078V23.1398C24 23.2885 24.0182 23.4366 24.0543 23.5808L25.7415 30.3297C25.7876 30.5141 25.9435 30.6503 26.1323 30.6713L33.5483 31.4953C33.8055 31.5238 34 31.7412 34 32C34 32.2588 33.8055 32.4762 33.5483 32.5047L26.1323 33.3287C25.9435 33.3497 25.7876 33.4859 25.7415 33.6703L24.0543 40.4192C24.0182 40.5635 24 40.7115 24 40.8602V40.8922C24 41.504 24.496 42 25.1078 42C25.2762 42 25.4423 41.9616 25.5935 41.8878L43.1829 33.3076C43.6828 33.0638 44 32.5563 44 32C44 31.4437 43.6828 30.9362 43.1829 30.6924Z" fill="white"/>
</svg>
