<svg width="24" height="24" viewBox="0 0 24 24" fill="none" xmlns="http://www.w3.org/2000/svg">
<path d="M21 6H3C2.73478 6 2.48043 6.10536 2.29289 6.29289C2.10536 6.48043 2 6.73478 2 7C2 7.26522 2.10536 7.51957 2.29289 7.70711C2.48043 7.89464 2.73478 8 3 8H5V19C4.99988 19.394 5.0774 19.7842 5.22812 20.1482C5.37884 20.5122 5.59982 20.843 5.87842 21.1216C6.15702 21.4002 6.48778 21.6212 6.85181 21.7719C7.21584 21.9226 7.606 22.0001 8 22H16C16.394 22.0001 16.7842 21.9226 17.1482 21.7719C17.5123 21.6212 17.843 21.4002 18.1216 21.1216C18.4002 20.843 18.6212 20.5123 18.7719 20.1482C18.9226 19.7842 19.0001 19.394 19 19V8H21C21.2652 8 21.5196 7.89464 21.7071 7.70711C21.8946 7.51957 22 7.26522 22 7C22 6.73478 21.8946 6.48043 21.7071 6.29289C21.5196 6.10536 21.2652 6 21 6ZM17 19C16.9996 19.2651 16.8942 19.5192 16.7067 19.7067C16.5192 19.8942 16.2651 19.9996 16 20H8C7.7349 19.9996 7.48076 19.8942 7.2933 19.7067C7.10585 19.5192 7.00037 19.2651 7 19V8H17V19Z" fill="#fff"/>
<path d="M10 5H14C14.2652 5 14.5196 4.89464 14.7071 4.70711C14.8946 4.51957 15 4.26522 15 4C15 3.73478 14.8946 3.48043 14.7071 3.29289C14.5196 3.10536 14.2652 3 14 3H10C9.73478 3 9.48043 3.10536 9.29289 3.29289C9.10536 3.48043 9 3.73478 9 4C9 4.26522 9.10536 4.51957 9.29289 4.70711C9.48043 4.89464 9.73478 5 10 5Z" fill="#fff"/>
<path d="M11 16.1429V11.8571C11 11.6298 10.8946 11.4118 10.7071 11.2511C10.5196 11.0903 10.2652 11 10 11C9.73478 11 9.48043 11.0903 9.29289 11.2511C9.10536 11.4118 9 11.6298 9 11.8571V16.1429C9 16.3702 9.10536 16.5882 9.29289 16.7489C9.48043 16.9097 9.73478 17 10 17C10.2652 17 10.5196 16.9097 10.7071 16.7489C10.8946 16.5882 11 16.3702 11 16.1429Z" fill="#fff"/>
<path d="M15 16.1429V11.8571C15 11.6298 14.8946 11.4118 14.7071 11.2511C14.5196 11.0903 14.2652 11 14 11C13.7348 11 13.4804 11.0903 13.2929 11.2511C13.1054 11.4118 13 11.6298 13 11.8571V16.1429C13 16.3702 13.1054 16.5882 13.2929 16.7489C13.4804 16.9097 13.7348 17 14 17C14.2652 17 14.5196 16.9097 14.7071 16.7489C14.8946 16.5882 15 16.3702 15 16.1429Z" fill="#fff"/>
</svg>
