<svg width="42" height="41" viewBox="0 0 42 41" fill="none" xmlns="http://www.w3.org/2000/svg">
<path id="Vector" fill-rule="evenodd" clip-rule="evenodd" d="M21.0007 0C32.2625 0 41.392 9.12947 41.392 20.3913C41.392 31.6532 32.2625 40.7827 21.0007 40.7827C9.73887 40.7827 0.609375 31.6532 0.609375 20.3913C0.609375 9.12947 9.73887 0 21.0007 0ZM40.6093 20.3913C40.6093 9.56177 31.8302 0.782621 21.0007 0.782621C20.1271 0.782621 19.267 0.839741 18.4236 0.950451C18.9685 0.902811 19.5199 0.878491 20.0771 0.878491C30.4253 0.878491 38.8142 9.26737 38.8142 19.6156C38.8142 29.9637 30.4253 38.3526 20.0771 38.3526C10.2802 38.3526 2.23937 30.8337 1.41054 21.2516C1.86079 31.682 10.4593 40 21.0007 40C31.8302 40 40.6093 31.2209 40.6093 20.3913ZM38.0315 19.6156C38.0315 9.69957 29.9931 1.66112 20.0771 1.66112C19.272 1.66112 18.4792 1.71412 17.7021 1.81681C18.1806 1.77655 18.6647 1.75601 19.1536 1.75601C28.5882 1.75601 36.2364 9.40427 36.2364 18.8388C36.2364 28.2734 28.5882 35.9216 19.1536 35.9216C10.233 35.9216 2.9094 29.0839 2.13803 20.3637C2.53022 29.9327 10.4118 37.57 20.0771 37.57C29.9931 37.57 38.0315 29.5315 38.0315 19.6156ZM19.1536 2.53864C28.1559 2.53864 35.4538 9.83647 35.4538 18.8388C35.4538 27.8411 28.1559 35.1389 19.1536 35.1389C10.3599 35.1389 3.19255 28.1753 2.8652 19.4616C3.57195 27.3266 10.1812 33.4905 18.2302 33.4905C26.7505 33.4905 33.6577 26.5834 33.6577 18.063C33.6577 9.54257 26.7505 2.63548 18.2302 2.63548C17.7894 2.63548 17.3529 2.65397 16.9215 2.6902C17.6513 2.59027 18.3964 2.53864 19.1536 2.53864ZM32.875 18.063C32.875 9.97487 26.3183 3.41811 18.2302 3.41811C17.5468 3.41811 16.8743 3.46491 16.2159 3.55549C16.5754 3.52735 16.9388 3.51302 17.3056 3.51302C24.9124 3.51302 31.0789 9.67947 31.0789 17.2863C31.0789 24.893 24.9124 31.0595 17.3056 31.0595C10.146 31.0595 4.26229 25.5966 3.59538 18.6117C3.88391 26.4456 10.3257 32.7079 18.2302 32.7079C26.3183 32.7079 32.875 26.1512 32.875 18.063ZM17.3056 4.29564C24.4801 4.29564 30.2962 10.1118 30.2962 17.2863C30.2962 24.4608 24.4801 30.2769 17.3056 30.2769C10.2725 30.2769 4.54473 24.6877 4.32179 17.7087C4.92392 23.8389 10.0937 28.6285 16.3821 28.6285C23.0753 28.6285 28.5011 23.2026 28.5011 16.5095C28.5011 9.81637 23.0753 4.39053 16.3821 4.39053C16.0752 4.39053 15.7709 4.40194 15.4697 4.42436C16.0695 4.33952 16.6824 4.29564 17.3056 4.29564ZM27.7185 16.5095C27.7185 10.2486 22.643 5.17316 16.3821 5.17316C15.8106 5.17316 15.249 5.21545 14.7002 5.29707C14.9507 5.27913 15.2036 5.27 15.4587 5.27C21.2376 5.27 25.9224 9.95477 25.9224 15.7337C25.9224 21.5127 21.2376 26.1974 15.4587 26.1974C10.0435 26.1974 5.5891 22.0839 5.04977 16.8111C5.20966 22.9326 10.2221 27.8459 16.3821 27.8459C22.643 27.8459 27.7185 22.7704 27.7185 16.5095ZM15.4587 6.05263C20.8054 6.05263 25.1397 10.387 25.1397 15.7337C25.1397 21.0805 20.8054 25.4148 15.4587 25.4148C10.18 25.4148 5.88809 21.1901 5.7797 15.9374C6.26733 20.3413 10.0013 23.7664 14.5352 23.7664C19.4005 23.7664 23.3446 19.8223 23.3446 14.957C23.3446 10.0917 19.4005 6.14752 14.5352 6.14752C14.3491 6.14752 14.1644 6.15329 13.9812 6.16466C14.4629 6.09089 14.9563 6.05263 15.4587 6.05263ZM22.562 14.957C22.562 10.5239 18.9683 6.93015 14.5352 6.93015C14.09 6.93015 13.6533 6.96639 13.2278 7.03608C13.3546 7.0294 13.4822 7.02602 13.6107 7.02602C17.5623 7.02602 20.7658 10.2295 20.7658 14.1812C20.7658 18.1329 17.5623 21.3364 13.6107 21.3364C9.95676 21.3364 6.94253 18.5974 6.50905 15.0606C6.56455 19.446 10.1367 22.9838 14.5352 22.9838C18.9683 22.9838 22.562 19.3901 22.562 14.957ZM13.6107 7.80864C17.1301 7.80864 19.9832 10.6617 19.9832 14.1812C19.9832 17.7007 17.1301 20.5537 13.6107 20.5537C10.0912 20.5537 7.23816 17.7007 7.23816 14.1812C7.23816 14.1728 7.23818 14.1643 7.23821 14.1559C7.60463 16.8379 9.90459 18.9044 12.6872 18.9044C15.7247 18.9044 18.1871 16.442 18.1871 13.4045C18.1871 10.3669 15.7247 7.90453 12.6872 7.90453C12.6185 7.90453 12.5501 7.90578 12.482 7.90828C12.8483 7.84281 13.2255 7.80864 13.6107 7.80864ZM17.4044 13.4045C17.4044 10.7992 15.2925 8.68715 12.6872 8.68715C10.0819 8.68715 7.96993 10.7992 7.96993 13.4045C7.96993 16.0097 10.0819 18.1217 12.6872 18.1217C15.2925 18.1217 17.4044 16.0097 17.4044 13.4045Z" fill="white"/>
</svg>
